<svg xmlns="http://www.w3.org/2000/svg" xmlns:xlink="http://www.w3.org/1999/xlink" width="23" height="17" viewBox="0 0 23 17"><defs><clipPath id="a"><rect width="23" height="17" fill="#fff"/></clipPath></defs><g clip-path="url(#a)"><path d="M19.488,1.866A18.984,18.984,0,0,0,14.8.413a.071.071,0,0,0-.075.036,13.224,13.224,0,0,0-.583,1.2,17.526,17.526,0,0,0-5.263,0,12.129,12.129,0,0,0-.593-1.2A.074.074,0,0,0,8.213.413,18.931,18.931,0,0,0,3.527,1.866a.067.067,0,0,0-.031.026A19.429,19.429,0,0,0,.1,15a.079.079,0,0,0,.03.054,19.09,19.09,0,0,0,5.748,2.906.074.074,0,0,0,.081-.026A13.644,13.644,0,0,0,7.13,16.016a.073.073,0,0,0-.04-.1,12.571,12.571,0,0,1-1.8-.856.074.074,0,0,1-.007-.122c.121-.09.241-.185.357-.28a.071.071,0,0,1,.074-.01,13.614,13.614,0,0,0,11.569,0,.071.071,0,0,1,.075.009c.115.1.236.19.358.28a.074.074,0,0,1-.006.122,11.8,11.8,0,0,1-1.8.855.073.073,0,0,0-.039.1,15.32,15.32,0,0,0,1.175,1.912.073.073,0,0,0,.081.027,19.027,19.027,0,0,0,5.757-2.906.074.074,0,0,0,.03-.053,19.3,19.3,0,0,0-3.4-13.1A.059.059,0,0,0,19.488,1.866ZM7.693,12.38a2.213,2.213,0,0,1-2.069-2.32A2.2,2.2,0,0,1,7.693,7.74a2.188,2.188,0,0,1,2.069,2.32A2.2,2.2,0,0,1,7.693,12.38Zm7.649,0a2.213,2.213,0,0,1-2.069-2.32,2.2,2.2,0,0,1,2.069-2.32,2.188,2.188,0,0,1,2.069,2.32A2.195,2.195,0,0,1,15.342,12.38Z" transform="translate(0 -0.278)" fill="#fff"/></g></svg>