<svg xmlns="http://www.w3.org/2000/svg" xmlns:xlink="http://www.w3.org/1999/xlink" width="35" height="26" viewBox="0 0 35 26"><defs><linearGradient id="a" x1="-0.031" y1="0.544" x2="1" y2="0.544" gradientUnits="objectBoundingBox"><stop offset="0" stop-color="#a7f3e4"/><stop offset="1" stop-color="#04c5f4"/></linearGradient><clipPath id="b"><rect width="35" height="26" fill="url(#a)"/></clipPath></defs><g clip-path="url(#b)"><path d="M29.692,2.628A28.923,28.923,0,0,0,22.552.414a.108.108,0,0,0-.115.054,20.147,20.147,0,0,0-.889,1.826,26.7,26.7,0,0,0-8.018,0,18.479,18.479,0,0,0-.9-1.826.113.113,0,0,0-.115-.054A28.843,28.843,0,0,0,5.374,2.628a.1.1,0,0,0-.047.04A29.6,29.6,0,0,0,.145,22.632a.12.12,0,0,0,.046.082,29.085,29.085,0,0,0,8.758,4.427.113.113,0,0,0,.123-.04,20.788,20.788,0,0,0,1.792-2.914.111.111,0,0,0-.061-.154,19.154,19.154,0,0,1-2.736-1.3.113.113,0,0,1-.011-.187c.184-.138.368-.281.543-.426a.108.108,0,0,1,.113-.015,20.742,20.742,0,0,0,17.627,0,.108.108,0,0,1,.115.014c.176.145.359.289.545.427a.112.112,0,0,1-.01.187,17.973,17.973,0,0,1-2.737,1.3.112.112,0,0,0-.059.156,23.34,23.34,0,0,0,1.79,2.913.111.111,0,0,0,.123.042,28.989,28.989,0,0,0,8.772-4.427.113.113,0,0,0,.046-.081A29.407,29.407,0,0,0,29.737,2.67.089.089,0,0,0,29.692,2.628ZM11.721,18.647a3.371,3.371,0,0,1-3.152-3.535,3.353,3.353,0,0,1,3.152-3.535,3.334,3.334,0,0,1,3.152,3.535A3.353,3.353,0,0,1,11.721,18.647Zm11.654,0a3.371,3.371,0,0,1-3.152-3.535,3.353,3.353,0,0,1,3.152-3.535,3.334,3.334,0,0,1,3.152,3.535A3.344,3.344,0,0,1,23.375,18.647Z" transform="translate(0 -0.208)" fill="url(#a)"/></g></svg>