<svg xmlns="http://www.w3.org/2000/svg" width="29.349" height="29.349" viewBox="0 0 29.349 29.349"><path d="M10.875,3A7.884,7.884,0,0,0,3,10.875v12.6a7.884,7.884,0,0,0,7.875,7.875h12.6a7.884,7.884,0,0,0,7.875-7.875v-12.6A7.884,7.884,0,0,0,23.474,3Zm0,3.15h12.6A4.731,4.731,0,0,1,28.2,10.875v12.6A4.731,4.731,0,0,1,23.474,28.2h-12.6A4.731,4.731,0,0,1,6.15,23.474v-12.6A4.731,4.731,0,0,1,10.875,6.15ZM25.049,7.725A1.575,1.575,0,1,0,26.624,9.3,1.575,1.575,0,0,0,25.049,7.725ZM17.174,9.3a7.875,7.875,0,1,0,7.875,7.875A7.884,7.884,0,0,0,17.174,9.3Zm0,3.15a4.725,4.725,0,1,1-4.725,4.725A4.731,4.731,0,0,1,17.174,12.45Z" transform="translate(-2.5 -2.5)" fill="#8b8ba7" stroke="rgba(0,0,0,0)" stroke-miterlimit="10" stroke-width="1"/></svg>