<svg xmlns="http://www.w3.org/2000/svg" width="32.48" height="24.731" viewBox="0 0 32.48 24.731"><path d="M31,7.225a11.876,11.876,0,0,1-3.417.937A5.959,5.959,0,0,0,30.2,4.871a11.929,11.929,0,0,1-3.779,1.444,5.951,5.951,0,0,0-10.291,4.07,6.015,6.015,0,0,0,.154,1.355A16.889,16.889,0,0,1,4.018,5.523a5.96,5.96,0,0,0,1.841,7.943,5.937,5.937,0,0,1-2.694-.744V12.8A5.95,5.95,0,0,0,7.937,18.63a5.951,5.951,0,0,1-1.568.209,6.057,6.057,0,0,1-1.119-.106,5.956,5.956,0,0,0,5.557,4.132A12,12,0,0,1,2,25.328,16.842,16.842,0,0,0,11.119,28c10.943,0,16.925-9.065,16.925-16.926q0-.386-.017-.77A12.106,12.106,0,0,0,31,7.225Z" transform="translate(0.107 -3.77)" fill="#8b8ba7" stroke="rgba(0,0,0,0)" stroke-miterlimit="10" stroke-width="1"/></svg>